# xmcd CD database file generated by OrangeCD 6.2
#
# Track frame offsets:
#	150
#	28737
#	59987
#	94185
#	124842
#	145155
#	163805
#	198430
#	215040
#	241880
#
# Disc length: 3499 seconds
#
# Revision: 1
# Processed by: cddbd v1.5.2PL0 Copyright (c) Steve Scherf et al.
# Submitted via: OrangeCD 6.2
#
DISCID=9c0da90a
DTITLE=Johannes Walter - Music Mantras I
DYEAR=1990
DGENRE=New Age
TTITLE0=Morning Song
TTITLE1=Guitar Mantra I
TTITLE2=Humming Voices
TTITLE3=Guitar Mantra II
TTITLE4=Have a Rest
TTITLE5=Venus I
TTITLE6=Confidence
TTITLE7=Aurora
TTITLE8=Sky Bells
TTITLE9=Venus II
EXTD=
EXTT0=
EXTT1=
EXTT2=
EXTT3=
EXTT4=
EXTT5=
EXTT6=
EXTT7=
EXTT8=
EXTT9=
PLAYORDER=
